 <svg xmlns="http://www.w3.org/2000/svg">
	<symbol viewBox="0 0 16 20" id="replay">
		<path
			d="M8,4V0L3,5l5,5V6c3.315,0,6,2.686,6,6s-2.685,6-6,6s-6-2.686-6-6H0c0,4.42,3.58,8,8,8s8-3.58,8-8S12.42,4,8,4z" />
	</symbol>
	<symbol viewBox="0 0 32 20" id="subtitles">
		<path
			d="M29,0H3C1.35,0,0,1.35,0,3v14c0,1.65,1.35,3,3,3h26c1.65,0,3-1.35,3-3V3C32,1.35,30.65,0,29,0z M14.403,15.854c-0.545,0.108-1.104,0.164-1.678,0.164c-0.694,0-1.354-0.107-1.976-0.323c-0.623-0.214-1.172-0.562-1.646-1.041 s-0.852-1.103-1.133-1.868C7.69,12.02,7.551,11.091,7.551,10c0-1.134,0.157-2.085,0.471-2.851c0.315-0.768,0.723-1.384,1.224-1.854  c0.502-0.468,1.062-0.804,1.679-1.008c0.616-0.204,1.233-0.307,1.852-0.307c0.66,0,1.22,0.045,1.678,0.134  c0.457,0.087,0.835,0.192,1.133,0.313L15.14,6.347c-0.254-0.121-0.555-0.209-0.902-0.265C13.891,6.027,13.47,6,12.973,6 c-0.915,0-1.649,0.325-2.206,0.977c-0.558,0.651-0.836,1.663-0.836,3.031c0,0.598,0.067,1.142,0.199,1.632  c0.132,0.493,0.334,0.913,0.603,1.26c0.271,0.349,0.607,0.619,1.01,0.812c0.402,0.193,0.867,0.29,1.396,0.29  c0.496,0,0.915-0.049,1.257-0.148c0.342-0.099,0.639-0.227,0.893-0.38l0.463,1.841C15.398,15.564,14.949,15.745,14.403,15.854z   M23.101,15.854c-0.545,0.108-1.105,0.164-1.678,0.164c-0.694,0-1.354-0.107-1.976-0.323c-0.623-0.214-1.172-0.562-1.646-1.041  s-0.852-1.103-1.133-1.868c-0.281-0.767-0.421-1.695-0.421-2.786c0-1.134,0.157-2.085,0.471-2.851  c0.314-0.768,0.723-1.384,1.223-1.854c0.502-0.468,1.062-0.804,1.68-1.008c0.616-0.204,1.233-0.307,1.851-0.307 c0.661,0,1.221,0.045,1.678,0.134c0.458,0.087,0.836,0.192,1.133,0.313l-0.446,1.918c-0.253-0.121-0.554-0.209-0.901-0.265  C22.588,6.027,22.166,6,21.67,6c-0.915,0-1.649,0.325-2.206,0.977c-0.558,0.651-0.836,1.663-0.836,3.031  c0,0.598,0.067,1.142,0.199,1.632c0.132,0.493,0.334,0.913,0.603,1.26c0.271,0.349,0.606,0.619,1.009,0.812 c0.402,0.193,0.868,0.29,1.396,0.29c0.497,0,0.915-0.049,1.257-0.148c0.342-0.099,0.64-0.227,0.894-0.38l0.463,1.841  C24.096,15.564,23.646,15.745,23.101,15.854z" />
	</symbol>
	<symbol viewBox="0 0 20 20" id="fullScreen">
		<g>
			<polygon points="0,0 0,3 0,6 3,6 3,3 6,3 6,0 3,0" />
			<polygon points="3,14 0,14 0,17 0,20 3,20 6,20 6,17 3,17" />
			<polygon points="17,0 14,0 14,3 17,3 17,6 20,6 20,3 20,0" />
			<polygon points="17,17 14,17 14,20 17,20 20,20 20,17 20,14 17,14" />
		</g>
	</symbol>
	<symbol viewBox="0 0 60 60" id="academy">
		<path d="M30.2 5h-.2l-19.7 2.1v36.2l19.7 11.7 19.7-11.7v-36.2l-19.5-2.1zm17 36.8l-17.2 10.2-17.2-10.2v-14.8l17.1 10.2v1.8l-11.7-7v1.8l11.8 7.1v1.9l-11.8-7v1.8l11.8 7 11.9-7.1v-7.6l5.3-3.2v15.1zm-.1-17l-4.7 2.8-2.2 1.3-10.3-6.1v1.8l8.8 5.3h-.1l-.2.1-1.3.7-7.3-4.3v1.8l5.8 3.4-1.4.9-4.3-2.6v1.8l2.9 1.7-2.9 1.7-17-10.1 17-10.2 17.2 10zm.1-1.8l-17.3-10.2-17.1 10.2v-13.6l17.2-1.8 17.2 1.8v13.6z"/>
	</symbol>
	<symbol viewBox="0 0 8.672 18.944" id="facebook">
		<path fill="#ffffff" d="M6.275,3.356c0.799,0,1.599,0,2.398,0c0-1.119,0-2.237,0-3.356c-0.959,0-1.92,0-2.878,0C2.656,0.181,1.54,2.387,1.948,6.114 H0v3.518h1.959c0,3.104,0,6.208,0,9.312c1.279,0,2.559,0,3.837,0c0-3.104,0-6.208,0-9.312h2.857V6.114H5.787 C5.765,5.069,5.75,3.709,6.275,3.356z"/>
	</symbol>
	<symbol viewBox="0 0 17.5 14.663" id="twitter">
		<g id="W6EeEF_1_">
			<g>
			<path fill="#ffffff" fill-rule="evenodd" clip-rule="evenodd" d="M11.283,0.153c1.736-0.484,3.074,0.264,3.685,1.15 c0.694-0.225,1.372-0.47,2.072-0.69c-0.004,0.841-0.538,1.478-0.883,1.728C16.861,2.506,17.5,1.86,17.5,1.86 c-0.175,0.977-1.035,1.746-1.611,1.977C15.65,10.429,12.617,14.793,5.507,14.66c-0.538,0,0.077,0-0.46,0 c-0.422,0-4.29-0.45-5.047-1.843c2.341,0.192,4.011-0.412,4.835-1.15c-0.989-0.293-2.761-0.464-3.07-2.881 c0.362,0.105,0.583,0.223,1.228,0.117C1.757,8.067,0.385,7.366,0.461,5.218c0.294,0.319,1.1,0.523,1.381,0.461 c-0.725-0.235-2.03-3.281-0.921-4.836C2.794,2.655,4.769,4.364,8.29,4.528C8.506,2.288,9.461,0.788,11.283,0.153z"/>
			</g>
		</g>
	</symbol>
	<symbol viewBox="0 0 19.979 14.015" id="youtube">
		<svg version="1.0" id="Layer_1" xmlns="http://www.w3.org/2000/svg" xmlns:xlink="http://www.w3.org/1999/xlink" x="0px" y="0px" width="19.979px" height="14.015px" enable-background="new 0 0 19.979 14.015" xml:space="preserve">
	<path fill="#ffffff" d="M17.145,0H2.835C1.275,0,0,1.275,0,2.835v8.345c0,1.56,1.275,2.835,2.835,2.835h14.31c1.56,0,2.835-1.275,2.835-2.835V2.835 C19.979,1.275,18.704,0,17.145,0z M7.036,10.392V3.623l6.769,3.384L7.036,10.392z"/>
	</svg>
  </symbol>
	<symbol viewBox="0 0 22 20" id="like">
  <g id="Page-1">
    <g id="Core" transform="translate(-295.000000, -464.000000)">
      <g id="thumb-up" transform="translate(295.000000, 464.000000)">
        <path id="Shape" d="M12.383,3.646l-0.637,2.929L11.219,9H13.7h6.2v2c0,0.018,0,0.037,0.001,0.058L17,18H8V8.029 l0.014-0.015L12.383,3.646 M2,10v8V10 M13.2,0L6.6,6.6C6.2,6.9,6,7.4,6,8v10c0,1.1,0.9,2,2,2h9c0.8,0,1.5-0.5,1.8-1.2l3-7.1 C21.9,11.5,21.9,11.2,21.9,11V9H22c0-1.1-0.9-2-2-2h-6.3l1-4.6V2.1c0-0.4-0.2-0.8-0.4-1.1L13.2,0L13.2,0z M4,8H0v12h4V8L4,8z M22,9c0,0.033,0,0.044,0,0.044V9L22,9z"/>
      </g>
    </g>
  </g>
	</symbol>
	<symbol viewBox="0 0 22.199 22.199" id="cross">
  		<polygon points="22.199,2.804 19.396,0 11.1,8.297 2.804,0 0,2.803 8.297,11.1 0,19.396 2.803,22.199 11.1,13.902 19.396,22.199 22.199,19.396 13.903,11.1 "/>
	</symbol>
	<symbol viewBox="0 0 22.928 21.982" id="menu">
		<g>
			<rect width="22.928" height="3.964"/>
			<rect y="9.009" width="22.928" height="3.964"/>
			<rect y="18.018" width="22.928" height="3.964"/>
		</g>
	</symbol>
	<symbol viewBox="0 0 493.528 493.528" id="pause">
		<path d="M178.064,0L166.04,0.248c-14.876,0-27.236,12.112-27.236,26.992v439.664c0,14.876,13.396,26.624,28.272,26.624h0.084
			l10.976-0.072c14.892,0,26.22-11.92,26.22-26.808V26.996C204.352,12.116,193.028,0,178.064,0z"/>
		<path d="M328.584,0l-12.092,0.248c-14.88,0-27.3,12.112-27.3,26.992v439.664c0,14.876,13.708,26.624,28.58,26.624h0.084
			l10.816-0.072c14.88,0,26.052-11.92,26.052-26.808V26.996C354.72,12.116,343.548,0,328.584,0z"/>
	</symbol>
	<symbol viewBox="0 0 320.001 320.001"  id="play">
		<path d="M295.84,146.049l-256-144c-4.96-2.784-11.008-2.72-15.904,0.128C19.008,5.057,16,10.305,16,16.001v288
			c0,5.696,3.008,10.944,7.936,13.824c2.496,1.44,5.28,2.176,8.064,2.176c2.688,0,5.408-0.672,7.84-2.048l256-144
			c5.024-2.848,8.16-8.16,8.16-13.952S300.864,148.897,295.84,146.049z"/>
	</symbol>
<symbol id="volume" viewBox="0 0 384 384">
	<g>
		<path d="M206.896,0.874c-3.958-1.688-8.458-0.885-11.563,2.042L85.479,106.665H10.667C4.771,106.665,0,111.436,0,117.332v149.333
			c0,5.896,4.771,10.667,10.667,10.667h74.813l109.854,103.75c2.021,1.917,4.667,2.917,7.333,2.917
			c1.417,0,2.854-0.281,4.229-0.875c3.896-1.677,6.438-5.531,6.438-9.792V10.665C213.333,6.405,210.792,2.551,206.896,0.874z"/>
		<path d="M262.452,132.214l-15.199,15.199c-3.505,3.505-4.44,9.168-1.513,13.168c6.449,8.819,10.26,19.682,10.26,31.418
			c0,11.736-3.811,22.599-10.26,31.417c-2.927,4-1.992,9.664,1.513,13.169l15.199,15.198c4.655,4.656,12.259,3.939,16.28-1.276
			c12.495-16.208,19.935-36.505,19.935-58.508c0-22.004-7.44-42.301-19.935-58.509
			C274.711,128.275,267.107,127.557,262.452,132.214z"/>
		<path d="M338.423,71.905c-4.01-4.53-11.151-4.512-15.428-0.234l-15.092,15.092c-4.043,4.042-4.005,10.395-0.27,14.721
			c20.991,24.307,33.701,55.954,33.701,90.514c0,34.56-12.71,66.207-33.701,90.516c-3.736,4.326-3.772,10.677,0.27,14.719
			l15.092,15.092c4.277,4.279,11.418,4.296,15.43-0.233C366.771,280.085,384,238.016,384,191.999
			C384,145.981,366.771,103.912,338.423,71.905z"/>
	</g>
</symbol>
<symbol id="speed" viewBox="0 0 511.999 511.999">
	<g>
		<path d="M357.42,209.037c-9.09-9.093-23.832-9.09-32.924,0l-66.389,66.387c-3.286-0.779-6.708-1.203-10.23-1.203
			c-24.435,0-44.316,19.897-44.316,44.356c0,24.459,19.88,44.357,44.316,44.357c24.459,0,44.357-19.899,44.357-44.357
			c0-3.522-0.424-6.944-1.203-10.23l66.387-66.387C366.513,232.87,366.513,218.128,357.42,209.037z"/>
	</g>
	<g>
		<path d="M437.082,120.098c-99.832-99.835-262.314-99.84-362.204,0.005c-86.213,86.257-99.573,222.314-31.77,323.512
			c7.156,10.681,21.62,13.535,32.301,6.382c10.681-7.156,13.539-21.618,6.382-32.301c-19.051-28.435-30.27-60.236-33.926-92.597
			h21.889c12.857,0,23.281-10.424,23.281-23.281s-10.424-23.281-23.281-23.281H47.791c4.219-38.675,19.11-76.218,44.212-107.794
			l15.84,15.842c4.546,4.546,10.504,6.82,16.463,6.82c5.958,0,11.917-2.274,16.461-6.82c9.092-9.09,9.092-23.832,0-32.924
			l-15.913-15.91c32.054-25.745,69.977-40.678,108.842-44.8v21.986c0,12.857,10.424,23.281,23.281,23.281
			c12.857,0,23.281-10.424,23.281-23.281V93.162c38.183,4.412,75.369,19.281,106.874,44.598l-15.901,15.902
			c-9.09,9.092-9.089,23.832,0.002,32.925c4.547,4.546,10.504,6.818,16.463,6.818s11.918-2.274,16.463-6.82l15.826-15.826
			c25.107,31.573,40.002,69.111,44.224,107.779h-21.961c-12.857,0-23.281,10.424-23.281,23.281
			c0,12.857,10.424,23.281,23.281,23.281h21.89c-3.658,32.36-14.88,64.159-33.937,92.594c-7.158,10.681-4.304,25.142,6.376,32.3
			c3.981,2.668,8.485,3.945,12.941,3.945c7.503,0,14.869-3.621,19.36-10.321C536.708,342.412,523.337,206.352,437.082,120.098z"/>
	</g>
	<g>
		<path d="M360.923,420.217H151.072c-12.857,0-23.281,10.424-23.281,23.281c0,12.857,10.424,23.281,23.281,23.281h209.851
			c12.857,0,23.281-10.424,23.281-23.281C384.204,430.641,373.78,420.217,360.923,420.217z"/>
	</g>
</symbol>

<symbol id="mute" viewBox="0 0 448.075 448.075">
<path d="M352.021,16.075c0-6.08-3.52-11.84-8.96-14.4c-5.76-2.88-12.16-1.92-16.96,1.92l-141.76,112.96l167.68,167.68V16.075z"/>
<path d="M443.349,420.747l-416-416c-6.24-6.24-16.384-6.24-22.624,0s-6.24,16.384,0,22.624l100.672,100.704h-9.376
	c-9.92,0-18.56,4.48-24.32,11.52c-4.8,5.44-7.68,12.8-7.68,20.48v128c0,17.6,14.4,32,32,32h74.24l155.84,124.48
	c2.88,2.24,6.4,3.52,9.92,3.52c2.24,0,4.8-0.64,7.04-1.6c5.44-2.56,8.96-8.32,8.96-14.4v-57.376l68.672,68.672
	c3.136,3.136,7.232,4.704,11.328,4.704s8.192-1.568,11.328-4.672C449.589,437.131,449.589,427.019,443.349,420.747z"/>
</symbol>
</svg>
